<?xml version="1.0" encoding="utf-8" standalone="no"?>
<!DOCTYPE svg PUBLIC "-//W3C//DTD SVG 1.1//EN"
  "http://www.w3.org/Graphics/SVG/1.1/DTD/svg11.dtd">
<!-- Created with matplotlib (https://matplotlib.org/) -->
<svg height="345.6pt" version="1.1" viewBox="0 0 460.8 345.6" width="460.8pt" xmlns="http://www.w3.org/2000/svg" xmlns:xlink="http://www.w3.org/1999/xlink">
 <defs>
  <style type="text/css">
*{stroke-linecap:butt;stroke-linejoin:round;}
  </style>
 </defs>
 <g id="figure_1">
  <g id="patch_1">
   <path d="M 0 345.6 
L 460.8 345.6 
L 460.8 0 
L 0 0 
z
" style="fill:#ffffff;"/>
  </g>
  <g id="axes_1">
   <g id="patch_2">
    <path d="M 57.6 95.780571 
L 414.72 95.780571 
L 414.72 41.472 
L 57.6 41.472 
z
" style="fill:#ffffff;"/>
   </g>
   <g id="matplotlib.axis_1">
    <g id="ytick_1">
     <g id="line2d_1">
      <path clip-path="url(#p098065a6f8)" d="M 57.6 85.597714 
L 414.72 85.597714 
" style="fill:none;stroke:#cccccc;stroke-linecap:round;stroke-width:0.8;"/>
     </g>
     <g id="line2d_2">
      <defs>
       <path d="M 0 0 
L -4.8 0 
" id="mbf8ede61e8" style="stroke:#262626;"/>
      </defs>
      <g>
       <use style="fill:#262626;stroke:#262626;" x="57.6" xlink:href="#mbf8ede61e8" y="85.597714"/>
      </g>
     </g>
     <g id="text_1">
      <!-- $-25$ -->
      <defs>
       <path d="M 65.90625 23 
C 67.59375 23 69.40625 23 69.40625 25 
C 69.40625 27 67.59375 27 65.90625 27 
L 11.796875 27 
C 10.09375 27 8.296875 27 8.296875 25 
C 8.296875 23 10.09375 23 11.796875 23 
z
" id="CMSY10-0"/>
       <path d="M 51.09375 50.171875 
C 51.09375 62.1875 41.796875 71 28.40625 71 
C 13.90625 71 5.5 63.59375 5 46.359375 
L 13.796875 46.359375 
C 14.5 58.28125 19.40625 63.296875 28.09375 63.296875 
C 36.09375 63.296875 42.09375 57.578125 42.09375 49.96875 
C 42.09375 44.359375 38.796875 39.546875 32.5 35.953125 
L 23.296875 30.75 
C 8.5 22.34375 4.203125 15.625 3.40625 0 
L 50.59375 0 
L 50.59375 8.71875 
L 13.296875 8.71875 
C 14.203125 14.53125 17.40625 18.234375 26.09375 23.34375 
L 36.09375 28.75 
C 46 34.0625 51.09375 41.453125 51.09375 50.171875 
z
" id="TeXGyreHeros-Regular-50"/>
       <path d="M 51.296875 23.90625 
C 51.296875 37.828125 42 47 28.40625 47 
C 23.40625 47 19.40625 45.703125 15.296875 42.6875 
L 18.09375 61.296875 
L 47.59375 61.296875 
L 47.59375 70 
L 11 70 
L 5.703125 32.640625 
L 13.796875 32.640625 
C 17.90625 37.5 21.296875 39.1875 26.796875 39.1875 
C 36.296875 39.1875 42.296875 33.125 42.296875 22.703125 
C 42.296875 12.578125 36.40625 6.8125 26.796875 6.8125 
C 19.09375 6.8125 14.40625 10.6875 12.296875 18.625 
L 3.5 18.625 
C 6.40625 4.578125 14.40625 -1 27 -1 
C 41.296875 -1 51.296875 8.953125 51.296875 23.90625 
z
" id="TeXGyreHeros-Regular-53"/>
      </defs>
      <g style="fill:#262626;" transform="translate(32.305821 88.806476)scale(0.088 -0.088)">
       <use transform="scale(0.996264)" xlink:href="#CMSY10-0"/>
       <use transform="translate(77.487468 0)scale(0.996264)" xlink:href="#TeXGyreHeros-Regular-50"/>
       <use transform="translate(132.879722 0)scale(0.996264)" xlink:href="#TeXGyreHeros-Regular-53"/>
      </g>
     </g>
    </g>
    <g id="ytick_2">
     <g id="line2d_3">
      <path clip-path="url(#p098065a6f8)" d="M 57.6 68.626286 
L 414.72 68.626286 
" style="fill:none;stroke:#cccccc;stroke-linecap:round;stroke-width:0.8;"/>
     </g>
     <g id="line2d_4">
      <g>
       <use style="fill:#262626;stroke:#262626;" x="57.6" xlink:href="#mbf8ede61e8" y="68.626286"/>
      </g>
     </g>
     <g id="text_2">
      <!-- $0$ -->
      <defs>
       <path d="M 50.703125 34.796875 
C 50.703125 59.546875 42.90625 71.8125 27.5 71.8125 
C 12.203125 71.8125 4.296875 59.359375 4.296875 35.40625 
C 4.296875 11.359375 12.296875 -1 27.5 -1 
C 42.5 -1 50.703125 11.359375 50.703125 34.796875 
z
M 41.703125 35.609375 
C 41.703125 15.375 37.09375 6.3125 27.296875 6.3125 
C 18 6.3125 13.296875 15.765625 13.296875 35.3125 
C 13.296875 54.84375 18 64 27.5 64 
C 37 64 41.703125 54.75 41.703125 35.609375 
z
" id="TeXGyreHeros-Regular-48"/>
      </defs>
      <g style="fill:#262626;" transform="translate(44.425488 71.835048)scale(0.088 -0.088)">
       <use transform="scale(0.996264)" xlink:href="#TeXGyreHeros-Regular-48"/>
      </g>
     </g>
    </g>
    <g id="ytick_3">
     <g id="line2d_5">
      <path clip-path="url(#p098065a6f8)" d="M 57.6 51.654857 
L 414.72 51.654857 
" style="fill:none;stroke:#cccccc;stroke-linecap:round;stroke-width:0.8;"/>
     </g>
     <g id="line2d_6">
      <g>
       <use style="fill:#262626;stroke:#262626;" x="57.6" xlink:href="#mbf8ede61e8" y="51.654857"/>
      </g>
     </g>
     <g id="text_3">
      <!-- $25$ -->
      <g style="fill:#262626;" transform="translate(39.550975 54.863619)scale(0.088 -0.088)">
       <use transform="scale(0.996264)" xlink:href="#TeXGyreHeros-Regular-50"/>
       <use transform="translate(55.392255 0)scale(0.996264)" xlink:href="#TeXGyreHeros-Regular-53"/>
      </g>
     </g>
    </g>
   </g>
   <g id="line2d_7">
    <path clip-path="url(#p098065a6f8)" d="M 73.832727 61.837714 
L 78.962269 68.156266 
L 85.228102 75.771955 
L 89.773265 80.953454 
L 93.019811 84.337441 
L 95.746909 86.865201 
L 98.246749 88.883705 
L 100.649193 90.543787 
L 102.986705 91.895321 
L 105.259287 92.955397 
L 107.402007 93.714498 
L 109.447331 94.207883 
L 111.427724 94.458754 
L 113.375651 94.480582 
L 115.323578 94.277826 
L 117.312166 93.843786 
L 119.38176 93.159076 
L 121.556945 92.198508 
L 123.829527 90.9469 
L 126.199505 89.382295 
L 128.634415 87.502172 
L 131.142449 85.280429 
L 133.893818 82.536878 
L 137.23776 78.868189 
L 141.88032 73.418513 
L 148.373411 65.428992 
L 153.38948 59.388972 
L 156.846895 55.579377 
L 160.09344 52.328776 
L 163.015331 49.70585 
L 165.580102 47.69063 
L 167.885149 46.152164 
L 170.060335 44.962518 
L 172.170589 44.061234 
L 174.248378 43.416434 
L 176.310091 43.00923 
L 178.371491 42.828377 
L 180.416815 42.870278 
L 182.462138 43.134505 
L 184.507462 43.626232 
L 186.552785 44.351428 
L 188.630575 45.330189 
L 190.773295 46.59037 
L 193.078342 48.212083 
L 195.610647 50.273854 
L 198.467607 52.896026 
L 201.584291 56.065178 
L 204.895767 59.75839 
L 208.953949 64.64514 
L 219.115636 77.010112 
L 223.271215 81.693153 
L 226.290502 84.773741 
L 228.952669 87.179624 
L 231.484975 89.172202 
L 233.919884 90.811705 
L 236.257396 92.125363 
L 238.497513 93.132094 
L 240.607767 93.838309 
L 242.620625 94.278875 
L 244.568553 94.479731 
L 246.51648 94.45595 
L 248.464407 94.210676 
L 250.477265 93.733021 
L 252.58752 93.000044 
L 254.795171 91.992134 
L 257.067753 90.706225 
L 259.405265 89.123017 
L 261.807709 87.220151 
L 264.340015 84.923012 
L 267.196975 82.02109 
L 270.833105 77.989692 
L 275.540596 72.424941 
L 288.494313 56.854414 
L 291.935651 53.2859 
L 294.987404 50.430661 
L 297.617105 48.266018 
L 299.954618 46.621139 
L 302.162269 45.334961 
L 304.304989 44.343004 
L 306.415244 43.610878 
L 308.493033 43.122182 
L 310.570822 42.860373 
L 312.616145 42.824877 
L 314.629004 43.009716 
L 316.641862 43.419176 
L 318.65472 44.059067 
L 320.700044 44.946937 
L 322.810298 46.107782 
L 325.08288 47.61734 
L 327.58272 49.553998 
L 330.342284 51.981922 
L 333.29664 54.881914 
L 336.413324 58.257446 
L 340.08192 62.576602 
L 354.983564 80.490174 
L 358.132713 83.809015 
L 360.892276 86.400779 
L 363.521978 88.567431 
L 366.054284 90.367596 
L 368.456727 91.805105 
L 370.678106 92.882062 
L 372.774633 93.657469 
L 374.787491 94.167492 
L 376.735418 94.434809 
L 378.683345 94.478491 
L 380.663738 94.298357 
L 382.676596 93.892303 
L 384.786851 93.236582 
L 386.962036 92.324197 
L 389.183415 91.149443 
L 391.455997 89.692507 
L 393.779782 87.934748 
L 396.247156 85.783174 
L 398.487273 83.605321 
L 398.487273 83.605321 
" style="fill:none;stroke:#dd8452;stroke-dasharray:4.44,1.92;stroke-dashoffset:0;stroke-width:1.2;"/>
   </g>
   <g id="line2d_8">
    <path clip-path="url(#p098065a6f8)" d="M 73.832727 61.837714 
L 80.975127 70.568103 
L 87.760407 78.998833 
L 90.714764 82.230365 
L 94.02624 85.512177 
L 97.435113 88.591415 
L 100.09728 90.713208 
L 102.304931 92.196768 
L 104.317789 93.285679 
L 106.265716 94.086685 
L 108.213644 94.646492 
L 110.226502 94.9911 
L 112.304291 95.119632 
L 114.414545 95.027455 
L 116.500529 94.7132 
L 118.513388 94.18344 
L 120.45312 93.442262 
L 122.401047 92.455527 
L 124.413905 91.181288 
L 126.654022 89.48864 
L 129.324384 87.178337 
L 132.757527 83.900822 
L 136.133935 80.382106 
L 139.088291 76.980828 
L 142.756887 72.381269 
L 148.730531 64.904977 
L 156.197585 56.068574 
L 159.314269 52.676261 
L 161.781644 50.311421 
L 164.184087 48.313328 
L 166.716393 46.498057 
L 169.313629 44.905199 
L 171.748538 43.662965 
L 173.923724 42.797312 
L 175.855575 42.260741 
L 177.67364 41.982195 
L 179.442851 41.935339 
L 181.228451 42.113075 
L 183.078982 42.523681 
L 185.09184 43.204981 
L 187.299491 44.192017 
L 189.7344 45.526896 
L 192.23424 47.149314 
L 194.636684 48.973402 
L 196.974196 51.033359 
L 199.441571 53.516295 
L 202.558255 56.995282 
L 209.083811 64.702342 
L 213.564044 70.289405 
L 219.537687 77.765502 
L 222.654371 81.250062 
L 226.225571 84.896526 
L 229.699375 88.144916 
L 232.296611 90.284683 
L 234.504262 91.821046 
L 236.549585 92.974497 
L 238.529978 93.838641 
L 240.542836 94.475919 
L 242.620625 94.900659 
L 244.73088 95.107089 
L 246.841135 95.089738 
L 248.853993 94.85198 
L 250.769455 94.405192 
L 252.652451 93.737951 
L 254.567913 92.817787 
L 256.580771 91.596275 
L 258.820887 89.968159 
L 261.547985 87.697093 
L 264.891927 84.614581 
L 268.008611 81.451819 
L 270.833105 78.265584 
L 274.241978 74.052315 
L 281.416844 65.118954 
L 290.08512 54.833969 
L 292.747287 52.064747 
L 295.214662 49.816892 
L 297.811898 47.754516 
L 300.538996 45.869346 
L 303.103767 44.354585 
L 305.343884 43.280301 
L 307.324276 42.569794 
L 309.174807 42.139485 
L 310.960407 41.952868 
L 312.746007 41.991573 
L 314.596538 42.257471 
L 316.576931 42.771775 
L 318.752116 43.574007 
L 321.089629 44.67682 
L 323.492073 46.056837 
L 325.79712 47.634634 
L 328.037236 49.435935 
L 330.374749 51.607156 
L 333.101847 54.46005 
L 337.354822 59.279173 
L 342.646691 65.571685 
L 347.354182 71.567936 
L 351.555953 76.79559 
L 354.886167 80.564724 
L 358.814487 84.664085 
L 362.158429 87.862611 
L 364.658269 89.959794 
L 366.833455 91.502506 
L 368.911244 92.705141 
L 370.970295 93.640576 
L 373.066822 94.350927 
L 375.209542 94.845115 
L 377.352262 95.11258 
L 379.397585 95.146532 
L 381.345513 94.957473 
L 383.196044 94.557142 
L 385.046575 93.927284 
L 386.929571 93.048388 
L 388.956157 91.851201 
L 391.261204 90.222357 
L 394.071971 87.951824 
L 397.286051 85.069301 
L 398.487273 83.910005 
L 398.487273 83.910005 
" style="fill:none;stroke:#4c72b0;stroke-linecap:round;stroke-width:1.2;"/>
   </g>
   <g id="patch_3">
    <path d="M 57.6 85.597714 
L 57.6 51.654857 
" style="fill:none;stroke:#262626;stroke-linecap:square;stroke-linejoin:miter;"/>
   </g>
   <g id="text_4">
    <!-- No Controller -->
    <defs>
     <path d="M 64.59375 -0.03125 
L 64.59375 73 
L 55.796875 73 
L 55.796875 13.296875 
L 17.703125 73 
L 7.59375 73 
L 7.59375 -0.03125 
L 16.40625 -0.03125 
L 16.40625 59.171875 
L 54.09375 -0.03125 
z
" id="TeXGyreHeros-Regular-78"/>
     <path d="M 51 26.453125 
C 51 44.640625 42.296875 54.71875 27.203125 54.71875 
C 12.5 54.71875 3.59375 44.546875 3.59375 26.859375 
C 3.59375 9.15625 12.40625 -1 27.296875 -1 
C 42 -1 51 9.15625 51 26.453125 
z
M 42.296875 26.546875 
C 42.296875 14.171875 36.5 6.703125 27.296875 6.703125 
C 18 6.703125 12.296875 14.078125 12.296875 26.859375 
C 12.296875 39.546875 18 47 27.296875 47 
C 36.703125 47 42.296875 39.640625 42.296875 26.546875 
z
" id="TeXGyreHeros-Regular-111"/>
     <path d="M 67.703125 26.5625 
L 58.09375 26.5625 
C 55.90625 12.671875 50.09375 6.203125 37.796875 6.203125 
C 23.296875 6.203125 14.09375 17.390625 14.09375 35.75 
C 14.09375 54.59375 22.90625 66.78125 37 66.78125 
C 48.40625 66.78125 54.40625 61.640625 56.703125 50.46875 
L 66.203125 50.46875 
C 63.296875 66.5625 54.09375 75 38.09375 75 
C 16 75 4.796875 57.078125 4.796875 35.640625 
C 4.796875 14.203125 16.296875 -2 37.703125 -2 
C 55.5 -2 65.5 7.453125 67.703125 26.5625 
z
" id="TeXGyreHeros-Regular-67"/>
     <path d="M 48.703125 0 
L 48.703125 39.671875 
C 48.703125 48.390625 42.203125 54 32.09375 54 
C 24.296875 54 19.296875 50.984375 14.703125 43.6875 
L 14.703125 52.484375 
L 7 52.484375 
L 7 0 
L 15.296875 0 
L 15.296875 28.953125 
C 15.296875 39.671875 21.09375 46.6875 29.59375 46.6875 
C 36.203125 46.6875 40.40625 42.671875 40.40625 36.359375 
L 40.40625 0 
z
" id="TeXGyreHeros-Regular-110"/>
     <path d="M 25.40625 -0.296875 
L 25.40625 6.71875 
C 24.296875 6.421875 23 6.3125 21.40625 6.3125 
C 17.796875 6.3125 16.796875 7.3125 16.796875 11 
L 16.796875 45.1875 
L 25.40625 45.1875 
L 25.40625 52 
L 16.796875 52 
L 16.796875 66.5 
L 8.5 66.5 
L 8.5 52 
L 1.40625 52 
L 1.40625 45.1875 
L 8.5 45.1875 
L 8.5 7.28125 
C 8.5 1.984375 12.09375 -1 18.59375 -1 
C 20.59375 -1 22.59375 -0.796875 25.40625 -0.296875 
z
" id="TeXGyreHeros-Regular-116"/>
     <path d="M 32.09375 45 
L 32.09375 53.625 
C 30.703125 53.8125 30 53.8125 28.90625 53.8125 
C 23.5 53.8125 19.40625 50.625 14.59375 42.90625 
L 14.59375 52.484375 
L 7 52.484375 
L 7 0 
L 15.296875 0 
L 15.296875 27.265625 
C 15.296875 39.078125 19.203125 45 32.09375 45 
z
" id="TeXGyreHeros-Regular-114"/>
     <path d="M 15.09375 -0.03125 
L 15.09375 73 
L 6.796875 73 
L 6.796875 -0.03125 
z
" id="TeXGyreHeros-Regular-108"/>
     <path d="M 51.296875 24 
C 51.296875 31.75 50.703125 36.65625 49.203125 40.625 
C 45.796875 49.40625 37.796875 54.71875 28 54.71875 
C 13.40625 54.71875 4 43.84375 4 26.546875 
C 4 9.265625 13.09375 -1 27.796875 -1 
C 39.796875 -1 48.09375 5.734375 50.203125 16.234375 
L 41.796875 16.234375 
C 39.5 9.46875 34.796875 6.703125 28.09375 6.703125 
C 19.40625 6.703125 12.90625 12.21875 12.703125 24 
z
M 42.40625 31.109375 
C 42.40625 31.109375 42.40625 31.109375 42.296875 31.109375 
L 12.90625 31.109375 
C 13.59375 40.578125 19.5 47 27.90625 47 
C 36.09375 47 42.40625 39.796875 42.40625 31.109375 
z
" id="TeXGyreHeros-Regular-101"/>
    </defs>
    <g style="fill:#262626;" transform="translate(358.435112 41.472)scale(0.096 -0.096)">
     <use transform="scale(0.996264)" xlink:href="#TeXGyreHeros-Regular-78"/>
     <use transform="translate(71.930274 0)scale(0.996264)" xlink:href="#TeXGyreHeros-Regular-111"/>
     <use transform="translate(155.018656 0)scale(0.996264)" xlink:href="#TeXGyreHeros-Regular-67"/>
     <use transform="translate(226.948929 0)scale(0.996264)" xlink:href="#TeXGyreHeros-Regular-111"/>
     <use transform="translate(282.341184 0)scale(0.996264)" xlink:href="#TeXGyreHeros-Regular-110"/>
     <use transform="translate(337.733439 0)scale(0.996264)" xlink:href="#TeXGyreHeros-Regular-116"/>
     <use transform="translate(365.429566 0)scale(0.996264)" xlink:href="#TeXGyreHeros-Regular-114"/>
     <use transform="translate(398.107028 0)scale(0.996264)" xlink:href="#TeXGyreHeros-Regular-111"/>
     <use transform="translate(453.499283 0)scale(0.996264)" xlink:href="#TeXGyreHeros-Regular-108"/>
     <use transform="translate(475.616356 0)scale(0.996264)" xlink:href="#TeXGyreHeros-Regular-108"/>
     <use transform="translate(497.733429 0)scale(0.996264)" xlink:href="#TeXGyreHeros-Regular-101"/>
     <use transform="translate(553.125684 0)scale(0.996264)" xlink:href="#TeXGyreHeros-Regular-114"/>
    </g>
   </g>
   <g id="legend_1">
    <g id="patch_4">
     <path d="M 372.642302 73.969475 
L 408.56 73.969475 
Q 410.32 73.969475 410.32 72.209475 
L 410.32 47.632 
Q 410.32 45.872 408.56 45.872 
L 372.642302 45.872 
Q 370.882302 45.872 370.882302 47.632 
L 370.882302 72.209475 
Q 370.882302 73.969475 372.642302 73.969475 
z
" style="fill:#ffffff;opacity:0.8;stroke:#cccccc;stroke-linejoin:miter;stroke-width:0.8;"/>
    </g>
    <g id="line2d_9">
     <path d="M 374.402302 52.729524 
L 392.002302 52.729524 
" style="fill:none;stroke:#dd8452;stroke-dasharray:4.44,1.92;stroke-dashoffset:0;stroke-width:1.2;"/>
    </g>
    <g id="line2d_10"/>
    <g id="text_5">
     <!-- $\theta_1$ -->
     <defs>
      <path d="M 44.296875 50 
C 44.296875 60.15625 41.09375 70 32.90625 70 
C 18.90625 70 4 40.859375 4 19 
C 4 14.421875 5 -1 15.5 -1 
C 29.09375 -1 44.296875 27.4375 44.296875 50 
z
M 14 36 
C 15.5 41.859375 17.59375 50.21875 21.59375 57.265625 
C 24.90625 63.234375 28.40625 68 32.796875 68 
C 36.09375 68 38.296875 65.21875 38.296875 55.6875 
C 38.296875 52.09375 38 47.140625 35.09375 36 
z
M 34.40625 33.015625 
C 31.90625 23.28125 29.796875 17 26.203125 10.734375 
C 23.296875 5.671875 19.796875 1 15.59375 1 
C 12.5 1 10 3.390625 10 13.21875 
C 10 19.6875 11.59375 26.453125 13.203125 33.015625 
z
" id="CMMI12-18"/>
      <path d="M 34.703125 0 
L 34.703125 71.015625 
L 28.90625 71.015625 
C 25.796875 60.109375 23.796875 58.609375 10.203125 56.90625 
L 10.203125 50.59375 
L 25.90625 50.59375 
L 25.90625 0 
z
" id="TeXGyreHeros-Regular-49"/>
     </defs>
     <g style="fill:#262626;" transform="translate(399.042302 55.809524)scale(0.088 -0.088)">
      <use transform="translate(0 16.732571)scale(0.996264)" xlink:href="#CMMI12-18"/>
      <use transform="translate(45.45979 0)scale(0.697382)" xlink:href="#TeXGyreHeros-Regular-49"/>
     </g>
    </g>
    <g id="line2d_11">
     <path d="M 374.402302 65.458261 
L 392.002302 65.458261 
" style="fill:none;stroke:#4c72b0;stroke-linecap:round;stroke-width:1.2;"/>
    </g>
    <g id="line2d_12"/>
    <g id="text_6">
     <!-- $\theta_2$ -->
     <g style="fill:#262626;" transform="translate(399.042302 68.538261)scale(0.088 -0.088)">
      <use transform="translate(0 16.732571)scale(0.996264)" xlink:href="#CMMI12-18"/>
      <use transform="translate(45.45979 0)scale(0.697382)" xlink:href="#TeXGyreHeros-Regular-50"/>
     </g>
    </g>
   </g>
  </g>
  <g id="axes_2">
   <g id="patch_5">
    <path d="M 57.6 166.381714 
L 414.72 166.381714 
L 414.72 112.073143 
L 57.6 112.073143 
z
" style="fill:#ffffff;"/>
   </g>
   <g id="matplotlib.axis_2">
    <g id="ytick_4">
     <g id="line2d_13">
      <path clip-path="url(#p561a62e578)" d="M 57.6 156.198857 
L 414.72 156.198857 
" style="fill:none;stroke:#cccccc;stroke-linecap:round;stroke-width:0.8;"/>
     </g>
     <g id="line2d_14">
      <g>
       <use style="fill:#262626;stroke:#262626;" x="57.6" xlink:href="#mbf8ede61e8" y="156.198857"/>
      </g>
     </g>
     <g id="text_7">
      <!-- $-25$ -->
      <g style="fill:#262626;" transform="translate(32.305821 159.407619)scale(0.088 -0.088)">
       <use transform="scale(0.996264)" xlink:href="#CMSY10-0"/>
       <use transform="translate(77.487468 0)scale(0.996264)" xlink:href="#TeXGyreHeros-Regular-50"/>
       <use transform="translate(132.879722 0)scale(0.996264)" xlink:href="#TeXGyreHeros-Regular-53"/>
      </g>
     </g>
    </g>
    <g id="ytick_5">
     <g id="line2d_15">
      <path clip-path="url(#p561a62e578)" d="M 57.6 139.227429 
L 414.72 139.227429 
" style="fill:none;stroke:#cccccc;stroke-linecap:round;stroke-width:0.8;"/>
     </g>
     <g id="line2d_16">
      <g>
       <use style="fill:#262626;stroke:#262626;" x="57.6" xlink:href="#mbf8ede61e8" y="139.227429"/>
      </g>
     </g>
     <g id="text_8">
      <!-- $0$ -->
      <g style="fill:#262626;" transform="translate(44.425488 142.43619)scale(0.088 -0.088)">
       <use transform="scale(0.996264)" xlink:href="#TeXGyreHeros-Regular-48"/>
      </g>
     </g>
    </g>
    <g id="ytick_6">
     <g id="line2d_17">
      <path clip-path="url(#p561a62e578)" d="M 57.6 122.256 
L 414.72 122.256 
" style="fill:none;stroke:#cccccc;stroke-linecap:round;stroke-width:0.8;"/>
     </g>
     <g id="line2d_18">
      <g>
       <use style="fill:#262626;stroke:#262626;" x="57.6" xlink:href="#mbf8ede61e8" y="122.256"/>
      </g>
     </g>
     <g id="text_9">
      <!-- $25$ -->
      <g style="fill:#262626;" transform="translate(39.550975 125.464762)scale(0.088 -0.088)">
       <use transform="scale(0.996264)" xlink:href="#TeXGyreHeros-Regular-50"/>
       <use transform="translate(55.392255 0)scale(0.996264)" xlink:href="#TeXGyreHeros-Regular-53"/>
      </g>
     </g>
    </g>
   </g>
   <g id="line2d_19">
    <path clip-path="url(#p561a62e578)" d="M 73.832727 132.438857 
L 78.248029 137.901872 
L 86.981236 148.834679 
L 89.448611 151.438228 
L 91.721193 153.52092 
L 93.896378 155.222897 
L 95.941702 156.550535 
L 97.824698 157.51586 
L 99.545367 158.157486 
L 101.16864 158.53152 
L 102.726982 158.665108 
L 104.252858 158.574366 
L 105.8112 158.254623 
L 107.402007 157.698379 
L 109.090211 156.870563 
L 110.940742 155.711438 
L 113.018531 154.140288 
L 115.323578 152.112517 
L 117.766682 149.665283 
L 120.323258 146.783823 
L 123.31008 143.061131 
L 131.661897 132.445265 
L 135.127505 128.520273 
L 137.887069 125.711805 
L 140.09472 123.772041 
L 142.010182 122.377082 
L 143.763316 121.36626 
L 145.45152 120.644082 
L 147.107258 120.175036 
L 148.762996 119.937303 
L 150.418735 119.923951 
L 152.090862 120.132897 
L 153.779066 120.568738 
L 155.483345 121.239563 
L 157.23648 122.174763 
L 159.02208 123.382862 
L 160.937542 124.954409 
L 163.080262 127.012525 
L 165.677498 129.833061 
L 169.281164 134.103618 
L 173.956189 139.998458 
L 179.994764 147.618628 
L 182.592 150.497297 
L 184.929513 152.762072 
L 187.169629 154.62889 
L 189.279884 156.105952 
L 191.227811 157.205296 
L 193.013411 157.963464 
L 194.669149 158.429859 
L 196.259956 158.646617 
L 197.785833 158.63199 
L 199.311709 158.396748 
L 200.902516 157.921176 
L 202.558255 157.189915 
L 204.37632 156.135032 
L 206.389178 154.699583 
L 208.629295 152.820326 
L 211.031738 150.510607 
L 213.531578 147.794162 
L 216.291142 144.453604 
L 221.51808 137.665366 
L 225.4464 132.789768 
L 228.952669 128.786635 
L 231.744698 125.913169 
L 233.952349 123.943219 
L 235.900276 122.496547 
L 237.685876 121.444069 
L 239.37408 120.701393 
L 241.029818 120.211393 
L 242.685556 119.952111 
L 244.341295 119.91692 
L 246.029498 120.106756 
L 247.717702 120.523024 
L 249.405905 121.167708 
L 251.126575 122.063166 
L 252.912175 123.24718 
L 254.795171 124.766623 
L 256.905425 126.764487 
L 259.470196 129.518731 
L 262.944 133.602098 
L 267.424233 139.21872 
L 274.306909 147.900702 
L 276.839215 150.675897 
L 279.176727 152.915189 
L 281.416844 154.759806 
L 283.527098 156.216003 
L 285.44256 157.27767 
L 287.195695 158.005392 
L 288.851433 158.455527 
L 290.409775 158.653036 
L 291.935651 158.625345 
L 293.461527 158.377083 
L 295.052335 157.888919 
L 296.740538 157.129678 
L 298.558604 156.060965 
L 300.571462 154.613884 
L 302.811578 152.723769 
L 305.214022 150.400977 
L 307.713862 147.667994 
L 310.505891 144.270222 
L 321.544145 130.434475 
L 324.693295 127.023573 
L 327.095738 124.72981 
L 329.141062 123.076118 
L 330.959127 121.882496 
L 332.679796 121.010879 
L 334.368 120.403383 
L 336.023738 120.042109 
L 337.679476 119.906762 
L 339.335215 119.991941 
L 341.023418 120.303419 
L 342.711622 120.842958 
L 344.432291 121.631147 
L 346.185425 122.683957 
L 348.035956 124.063581 
L 350.030077 125.835324 
L 352.367589 128.223828 
L 355.405615 131.671691 
L 359.496262 136.667387 
L 369.963866 149.67742 
L 372.366309 152.103757 
L 374.657629 154.107209 
L 376.832815 155.719759 
L 378.813207 156.921659 
L 380.631273 157.773298 
L 382.319476 158.322651 
L 383.910284 158.609034 
L 385.43616 158.662125 
L 386.962036 158.49438 
L 388.520378 158.098282 
L 390.157379 157.448982 
L 391.910513 156.510514 
L 393.844713 155.217971 
L 396.019898 153.48724 
L 398.357411 151.337978 
L 398.487273 151.210138 
L 398.487273 151.210138 
" style="fill:none;stroke:#dd8452;stroke-dasharray:4.44,1.92;stroke-dashoffset:0;stroke-width:1.2;"/>
   </g>
   <g id="line2d_20">
    <path clip-path="url(#p561a62e578)" d="M 73.832727 132.438857 
L 76.421436 135.711989 
L 81.429644 142.095302 
L 84.643724 145.737962 
L 89.805731 151.227675 
L 92.143244 153.41528 
L 93.961309 154.82 
L 95.584582 155.800532 
L 97.175389 156.502297 
L 98.798662 156.972911 
L 100.551796 157.243217 
L 102.499724 157.310406 
L 104.609978 157.159074 
L 106.720233 156.788914 
L 108.635695 156.2309 
L 110.356364 155.49803 
L 111.979636 154.560065 
L 113.602909 153.356409 
L 115.356044 151.766158 
L 117.506958 149.492732 
L 123.342545 142.818675 
L 127.400727 138.035729 
L 135.030109 128.720836 
L 136.945571 126.932306 
L 138.958429 125.360944 
L 141.263476 123.852556 
L 143.730851 122.502549 
L 145.873571 121.574187 
L 147.659171 121.034263 
L 149.249978 120.77976 
L 150.743389 120.762786 
L 152.220724 120.968271 
L 153.7466 121.406861 
L 155.418415 122.12492 
L 157.366342 123.216083 
L 159.73632 124.812142 
L 162.333556 126.82654 
L 164.606138 128.860997 
L 166.683927 131.024088 
L 168.891578 133.657806 
L 177.884509 144.810352 
L 183.241309 150.588802 
L 185.773615 153.042018 
L 187.624145 154.537688 
L 189.279884 155.596494 
L 190.870691 156.351217 
L 192.493964 156.872082 
L 194.214633 157.187176 
L 196.130095 157.305957 
L 198.240349 157.209441 
L 200.350604 156.894939 
L 202.298531 156.383457 
L 204.0192 155.705757 
L 205.642473 154.825851 
L 207.23328 153.708 
L 208.921484 152.245037 
L 210.934342 150.190825 
L 214.343215 146.33017 
L 222.037527 137.324761 
L 228.335825 129.525066 
L 230.283753 127.589403 
L 232.264145 125.938547 
L 234.471796 124.39496 
L 236.939171 122.941162 
L 239.211753 121.850492 
L 241.094749 121.185757 
L 242.718022 120.839652 
L 244.243898 120.739453 
L 245.737309 120.868366 
L 247.263185 121.230813 
L 248.886458 121.851781 
L 250.736989 122.807247 
L 252.977105 124.227548 
L 255.574342 126.14255 
L 257.94432 128.158446 
L 260.022109 130.217979 
L 262.132364 132.634318 
L 264.956858 136.248074 
L 269.177367 141.612277 
L 272.423913 145.316181 
L 277.94304 151.241354 
L 280.215622 153.375676 
L 282.001222 154.758506 
L 283.624495 155.741466 
L 285.215302 156.446529 
L 286.838575 156.924527 
L 288.591709 157.209181 
L 290.539636 157.299397 
L 292.682356 157.173546 
L 294.760145 156.833657 
L 296.643142 156.304331 
L 298.331345 155.600861 
L 299.922153 154.697879 
L 301.545425 153.512492 
L 303.29856 151.942568 
L 305.44128 149.70427 
L 310.473425 143.990075 
L 315.148451 138.526957 
L 319.36896 133.120539 
L 321.933731 130.043462 
L 323.914124 128.007332 
L 325.862051 126.319639 
L 328.037236 124.735224 
L 330.504611 123.216453 
L 332.809658 122.044404 
L 334.72512 121.305641 
L 336.380858 120.894767 
L 337.906735 120.739275 
L 339.400145 120.812705 
L 340.893556 121.110952 
L 342.484364 121.659421 
L 344.269964 122.517164 
L 346.412684 123.805055 
L 348.944989 125.592187 
L 351.36116 127.558115 
L 353.457687 129.545962 
L 355.503011 131.798052 
L 357.970385 134.874152 
L 363.684305 142.120704 
L 367.320436 146.213871 
L 372.43124 151.668099 
L 374.560233 153.61552 
L 376.313367 154.924076 
L 377.93664 155.8597 
L 379.527447 156.521616 
L 381.183185 156.970526 
L 383.001251 157.229593 
L 385.014109 157.289108 
L 387.156829 157.130806 
L 389.183415 156.764336 
L 391.00148 156.214019 
L 392.643491 155.488581 
L 394.234298 154.540979 
L 395.857571 153.308515 
L 397.643171 151.663468 
L 398.487273 150.799096 
L 398.487273 150.799096 
" style="fill:none;stroke:#4c72b0;stroke-linecap:round;stroke-width:1.2;"/>
   </g>
   <g id="patch_6">
    <path d="M 57.6 156.198857 
L 57.6 122.256 
" style="fill:none;stroke:#262626;stroke-linecap:square;stroke-linejoin:miter;"/>
   </g>
   <g id="text_10">
    <!-- P-Controller -->
    <defs>
     <path d="M 61.703125 51.609375 
C 61.703125 65.296875 53.59375 73 39.203125 73 
L 9.09375 73 
L 9.09375 -0.21875 
L 18.40625 -0.21875 
L 18.40625 31 
L 41.296875 31 
C 53.296875 31 61.703125 39.5 61.703125 51.609375 
z
M 52 51.984375 
C 52 44 46.703125 39.21875 37.796875 39.21875 
L 18.40625 39.21875 
L 18.40625 64.78125 
L 37.796875 64.78125 
C 46.703125 64.78125 52 59.984375 52 51.984375 
z
" id="TeXGyreHeros-Regular-80"/>
     <path d="M 28.40625 24 
L 28.40625 31.203125 
L 4.59375 31.203125 
L 4.59375 24 
z
" id="TeXGyreHeros-Regular-45"/>
    </defs>
    <g style="fill:#262626;" transform="translate(364.135339 112.073143)scale(0.096 -0.096)">
     <use transform="scale(0.996264)" xlink:href="#TeXGyreHeros-Regular-80"/>
     <use transform="translate(62.465826 0)scale(0.996264)" xlink:href="#TeXGyreHeros-Regular-45"/>
     <use transform="translate(95.641436 0)scale(0.996264)" xlink:href="#TeXGyreHeros-Regular-67"/>
     <use transform="translate(167.57171 0)scale(0.996264)" xlink:href="#TeXGyreHeros-Regular-111"/>
     <use transform="translate(222.963964 0)scale(0.996264)" xlink:href="#TeXGyreHeros-Regular-110"/>
     <use transform="translate(278.356219 0)scale(0.996264)" xlink:href="#TeXGyreHeros-Regular-116"/>
     <use transform="translate(306.052346 0)scale(0.996264)" xlink:href="#TeXGyreHeros-Regular-114"/>
     <use transform="translate(338.729809 0)scale(0.996264)" xlink:href="#TeXGyreHeros-Regular-111"/>
     <use transform="translate(394.122064 0)scale(0.996264)" xlink:href="#TeXGyreHeros-Regular-108"/>
     <use transform="translate(416.239137 0)scale(0.996264)" xlink:href="#TeXGyreHeros-Regular-108"/>
     <use transform="translate(438.35621 0)scale(0.996264)" xlink:href="#TeXGyreHeros-Regular-101"/>
     <use transform="translate(493.748465 0)scale(0.996264)" xlink:href="#TeXGyreHeros-Regular-114"/>
    </g>
   </g>
  </g>
  <g id="axes_3">
   <g id="patch_7">
    <path d="M 57.6 236.982857 
L 414.72 236.982857 
L 414.72 182.674286 
L 57.6 182.674286 
z
" style="fill:#ffffff;"/>
   </g>
   <g id="matplotlib.axis_3">
    <g id="ytick_7">
     <g id="line2d_21">
      <path clip-path="url(#p0370f2ebc1)" d="M 57.6 226.8 
L 414.72 226.8 
" style="fill:none;stroke:#cccccc;stroke-linecap:round;stroke-width:0.8;"/>
     </g>
     <g id="line2d_22">
      <g>
       <use style="fill:#262626;stroke:#262626;" x="57.6" xlink:href="#mbf8ede61e8" y="226.8"/>
      </g>
     </g>
     <g id="text_11">
      <!-- $-25$ -->
      <g style="fill:#262626;" transform="translate(32.305821 230.008762)scale(0.088 -0.088)">
       <use transform="scale(0.996264)" xlink:href="#CMSY10-0"/>
       <use transform="translate(77.487468 0)scale(0.996264)" xlink:href="#TeXGyreHeros-Regular-50"/>
       <use transform="translate(132.879722 0)scale(0.996264)" xlink:href="#TeXGyreHeros-Regular-53"/>
      </g>
     </g>
    </g>
    <g id="ytick_8">
     <g id="line2d_23">
      <path clip-path="url(#p0370f2ebc1)" d="M 57.6 209.828571 
L 414.72 209.828571 
" style="fill:none;stroke:#cccccc;stroke-linecap:round;stroke-width:0.8;"/>
     </g>
     <g id="line2d_24">
      <g>
       <use style="fill:#262626;stroke:#262626;" x="57.6" xlink:href="#mbf8ede61e8" y="209.828571"/>
      </g>
     </g>
     <g id="text_12">
      <!-- $0$ -->
      <g style="fill:#262626;" transform="translate(44.425488 213.037333)scale(0.088 -0.088)">
       <use transform="scale(0.996264)" xlink:href="#TeXGyreHeros-Regular-48"/>
      </g>
     </g>
    </g>
    <g id="ytick_9">
     <g id="line2d_25">
      <path clip-path="url(#p0370f2ebc1)" d="M 57.6 192.857143 
L 414.72 192.857143 
" style="fill:none;stroke:#cccccc;stroke-linecap:round;stroke-width:0.8;"/>
     </g>
     <g id="line2d_26">
      <g>
       <use style="fill:#262626;stroke:#262626;" x="57.6" xlink:href="#mbf8ede61e8" y="192.857143"/>
      </g>
     </g>
     <g id="text_13">
      <!-- $25$ -->
      <g style="fill:#262626;" transform="translate(39.550975 196.065905)scale(0.088 -0.088)">
       <use transform="scale(0.996264)" xlink:href="#TeXGyreHeros-Regular-50"/>
       <use transform="translate(55.392255 0)scale(0.996264)" xlink:href="#TeXGyreHeros-Regular-53"/>
      </g>
     </g>
    </g>
   </g>
   <g id="line2d_27">
    <path clip-path="url(#p0370f2ebc1)" d="M 73.832727 203.04 
L 81.072524 211.542992 
L 83.377571 213.77526 
L 85.844945 215.852494 
L 88.831767 218.066239 
L 91.88352 220.063081 
L 94.415825 221.467072 
L 96.623476 222.444476 
L 98.733731 223.138084 
L 100.876451 223.606575 
L 103.149033 223.873998 
L 105.681338 223.942967 
L 108.440902 223.791452 
L 111.232931 223.417504 
L 113.992495 222.825899 
L 116.825184 221.990091 
L 120.031069 220.803337 
L 124.219113 218.998221 
L 130.882726 215.859306 
L 141.912785 210.636936 
L 146.263156 208.8767 
L 150.386269 207.44729 
L 154.266048 206.334854 
L 157.918255 205.517194 
L 161.489455 204.944523 
L 165.158051 204.582759 
L 168.988975 204.430494 
L 172.982225 204.494966 
L 177.25159 204.789577 
L 182.040087 205.349444 
L 187.9488 206.275253 
L 197.461178 208.026348 
L 207.363142 209.775308 
L 213.986095 210.715465 
L 219.959738 211.340408 
L 225.771055 211.724677 
L 231.744698 211.894863 
L 238.140393 211.850486 
L 245.44512 211.570301 
L 255.249687 210.953376 
L 277.066473 209.521481 
L 286.643782 209.163096 
L 296.15616 209.032168 
L 306.837295 209.115278 
L 322.22592 209.484416 
L 345.730909 210.027877 
L 360.989673 210.135344 
L 379.689775 210.026532 
L 398.487273 209.8335 
L 398.487273 209.8335 
" style="fill:none;stroke:#dd8452;stroke-dasharray:4.44,1.92;stroke-dashoffset:0;stroke-width:1.2;"/>
   </g>
   <g id="line2d_28">
    <path clip-path="url(#p0370f2ebc1)" d="M 73.832727 203.04 
L 75.479731 204.83966 
L 77.858444 207.062338 
L 80.747869 209.835556 
L 83.637295 212.976735 
L 86.591651 216.093296 
L 88.442182 217.717316 
L 90.195316 218.958852 
L 92.078313 220.015675 
L 94.545687 221.127779 
L 98.831127 222.783033 
L 101.785484 223.723832 
L 103.928204 224.179195 
L 105.876131 224.368097 
L 107.856524 224.331804 
L 110.031709 224.062183 
L 112.758807 223.487316 
L 116.695322 222.411903 
L 120.518051 221.15393 
L 123.699665 219.873163 
L 127.270865 218.181006 
L 139.542807 212.16522 
L 145.776175 209.408348 
L 149.639564 207.93862 
L 153.259619 206.800579 
L 157.041687 205.846834 
L 160.872611 205.107181 
L 164.508742 204.627405 
L 168.079942 204.380655 
L 171.845935 204.347437 
L 176.017902 204.537355 
L 180.611607 204.971242 
L 185.676218 205.677744 
L 192.396567 206.860089 
L 210.025309 210.047957 
L 216.291142 210.894921 
L 222.199855 211.470564 
L 227.978705 211.810692 
L 233.919884 211.935981 
L 240.412975 211.846594 
L 247.94496 211.51253 
L 258.723491 210.786602 
L 276.51456 209.593354 
L 286.1568 209.192053 
L 295.539316 209.026528 
L 305.830865 209.073721 
L 319.596218 209.379239 
L 348.035956 210.04999 
L 363.229789 210.13965 
L 382.481804 210.010647 
L 398.487273 209.842362 
L 398.487273 209.842362 
" style="fill:none;stroke:#4c72b0;stroke-linecap:round;stroke-width:1.2;"/>
   </g>
   <g id="patch_8">
    <path d="M 57.6 226.8 
L 57.6 192.857143 
" style="fill:none;stroke:#262626;stroke-linecap:square;stroke-linejoin:miter;"/>
   </g>
   <g id="text_14">
    <!-- PD-Controller -->
    <defs>
     <path d="M 66.703125 36.546875 
C 66.703125 59.171875 55.5 73 37 73 
L 8.90625 73 
L 8.90625 0 
L 37 0 
C 55.40625 0 66.703125 13.828125 66.703125 36.546875 
z
M 57.40625 36.453125 
C 57.40625 18.03125 49.796875 8.21875 35.40625 8.21875 
L 18.203125 8.21875 
L 18.203125 64.78125 
L 35.40625 64.78125 
C 49.796875 64.78125 57.40625 55.0625 57.40625 36.453125 
z
" id="TeXGyreHeros-Regular-68"/>
    </defs>
    <g style="fill:#262626;" transform="translate(356.847468 182.674286)scale(0.096 -0.096)">
     <use transform="scale(0.996264)" xlink:href="#TeXGyreHeros-Regular-80"/>
     <use transform="translate(66.450791 0)scale(0.996264)" xlink:href="#TeXGyreHeros-Regular-68"/>
     <use transform="translate(138.381065 0)scale(0.996264)" xlink:href="#TeXGyreHeros-Regular-45"/>
     <use transform="translate(171.556675 0)scale(0.996264)" xlink:href="#TeXGyreHeros-Regular-67"/>
     <use transform="translate(243.486948 0)scale(0.996264)" xlink:href="#TeXGyreHeros-Regular-111"/>
     <use transform="translate(298.879203 0)scale(0.996264)" xlink:href="#TeXGyreHeros-Regular-110"/>
     <use transform="translate(354.271458 0)scale(0.996264)" xlink:href="#TeXGyreHeros-Regular-116"/>
     <use transform="translate(381.967585 0)scale(0.996264)" xlink:href="#TeXGyreHeros-Regular-114"/>
     <use transform="translate(414.645048 0)scale(0.996264)" xlink:href="#TeXGyreHeros-Regular-111"/>
     <use transform="translate(470.037302 0)scale(0.996264)" xlink:href="#TeXGyreHeros-Regular-108"/>
     <use transform="translate(492.154375 0)scale(0.996264)" xlink:href="#TeXGyreHeros-Regular-108"/>
     <use transform="translate(514.271448 0)scale(0.996264)" xlink:href="#TeXGyreHeros-Regular-101"/>
     <use transform="translate(569.663703 0)scale(0.996264)" xlink:href="#TeXGyreHeros-Regular-114"/>
    </g>
   </g>
  </g>
  <g id="axes_4">
   <g id="patch_9">
    <path d="M 57.6 307.584 
L 414.72 307.584 
L 414.72 253.275429 
L 57.6 253.275429 
z
" style="fill:#ffffff;"/>
   </g>
   <g id="matplotlib.axis_4">
    <g id="xtick_1">
     <g id="line2d_29">
      <defs>
       <path d="M 0 0 
L 0 4.8 
" id="m03f9ce4976" style="stroke:#262626;"/>
      </defs>
      <g>
       <use style="fill:#262626;stroke:#262626;" x="73.832727" xlink:href="#m03f9ce4976" y="307.584"/>
      </g>
     </g>
     <g id="text_15">
      <!-- $0$ -->
      <g style="fill:#262626;" transform="translate(71.395471 322.301524)scale(0.088 -0.088)">
       <use transform="scale(0.996264)" xlink:href="#TeXGyreHeros-Regular-48"/>
      </g>
     </g>
    </g>
    <g id="xtick_2">
     <g id="line2d_30">
      <g>
       <use style="fill:#262626;stroke:#262626;" x="138.763636" xlink:href="#m03f9ce4976" y="307.584"/>
      </g>
     </g>
     <g id="text_16">
      <!-- $2$ -->
      <g style="fill:#262626;" transform="translate(136.32638 322.301524)scale(0.088 -0.088)">
       <use transform="scale(0.996264)" xlink:href="#TeXGyreHeros-Regular-50"/>
      </g>
     </g>
    </g>
    <g id="xtick_3">
     <g id="line2d_31">
      <g>
       <use style="fill:#262626;stroke:#262626;" x="203.694545" xlink:href="#m03f9ce4976" y="307.584"/>
      </g>
     </g>
     <g id="text_17">
      <!-- $4$ -->
      <defs>
       <path d="M 52 17 
L 52 24.90625 
L 41.5 24.90625 
L 41.5 71.015625 
L 35 71.015625 
L 2.796875 26.3125 
L 2.796875 17 
L 32.703125 17 
L 32.703125 0 
L 41.5 0 
L 41.5 17 
z
M 32.703125 24.90625 
L 10.5 24.90625 
L 32.703125 55.984375 
z
" id="TeXGyreHeros-Regular-52"/>
      </defs>
      <g style="fill:#262626;" transform="translate(201.257289 322.301524)scale(0.088 -0.088)">
       <use transform="scale(0.996264)" xlink:href="#TeXGyreHeros-Regular-52"/>
      </g>
     </g>
    </g>
    <g id="xtick_4">
     <g id="line2d_32">
      <g>
       <use style="fill:#262626;stroke:#262626;" x="268.625455" xlink:href="#m03f9ce4976" y="307.584"/>
      </g>
     </g>
     <g id="text_18">
      <!-- $6$ -->
      <defs>
       <path d="M 51.296875 22.609375 
C 51.296875 35.875 42.296875 44.8125 29.59375 44.8125 
C 22.59375 44.8125 17.09375 42.109375 13.296875 36.90625 
C 13.40625 54.328125 19 64 29.09375 64 
C 35.296875 64 39.59375 60.0625 41 53.1875 
L 49.796875 53.1875 
C 48.09375 64.875 40.5 71.8125 29.703125 71.8125 
C 13.203125 71.8125 4.296875 57.828125 4.296875 33 
C 4.296875 10.765625 11.90625 -1 28.09375 -1 
C 41.59375 -1 51.296875 8.640625 51.296875 22.609375 
z
M 42.296875 21.921875 
C 42.296875 12.953125 36.296875 6.8125 28.203125 6.8125 
C 20 6.8125 13.796875 13.25 13.796875 22.421875 
C 13.796875 31.265625 19.796875 37 28.5 37 
C 37 37 42.296875 31.46875 42.296875 21.921875 
z
" id="TeXGyreHeros-Regular-54"/>
      </defs>
      <g style="fill:#262626;" transform="translate(266.188198 322.301524)scale(0.088 -0.088)">
       <use transform="scale(0.996264)" xlink:href="#TeXGyreHeros-Regular-54"/>
      </g>
     </g>
    </g>
    <g id="xtick_5">
     <g id="line2d_33">
      <g>
       <use style="fill:#262626;stroke:#262626;" x="333.556364" xlink:href="#m03f9ce4976" y="307.584"/>
      </g>
     </g>
     <g id="text_19">
      <!-- $8$ -->
      <defs>
       <path d="M 51.296875 20.5625 
C 51.296875 28.484375 47.296875 34 39.09375 37.90625 
C 46.40625 42.34375 48.796875 45.984375 48.796875 52.75 
C 48.796875 63.9375 40.09375 71.8125 27.5 71.8125 
C 15 71.8125 6.203125 63.9375 6.203125 52.75 
C 6.203125 46.09375 8.59375 42.453125 15.796875 37.90625 
C 7.703125 34 3.703125 28.484375 3.703125 20.671875 
C 3.703125 7.625 13.5 -1 27.5 -1 
C 41.5 -1 51.296875 7.625 51.296875 20.5625 
z
M 39.796875 52.5625 
C 39.796875 45.875 34.90625 41.421875 27.5 41.421875 
C 20.09375 41.421875 15.203125 45.875 15.203125 52.65625 
C 15.203125 59.546875 20.09375 64 27.5 64 
C 35 64 39.796875 59.546875 39.796875 52.5625 
z
M 42.296875 20.46875 
C 42.296875 12.03125 36.296875 6.8125 27.296875 6.8125 
C 18.703125 6.8125 12.703125 12.140625 12.703125 20.46875 
C 12.703125 28.78125 18.703125 34 27.5 34 
C 36.296875 34 42.296875 28.78125 42.296875 20.46875 
z
" id="TeXGyreHeros-Regular-56"/>
      </defs>
      <g style="fill:#262626;" transform="translate(331.119107 322.301524)scale(0.088 -0.088)">
       <use transform="scale(0.996264)" xlink:href="#TeXGyreHeros-Regular-56"/>
      </g>
     </g>
    </g>
    <g id="xtick_6">
     <g id="line2d_34">
      <g>
       <use style="fill:#262626;stroke:#262626;" x="398.487273" xlink:href="#m03f9ce4976" y="307.584"/>
      </g>
     </g>
     <g id="text_20">
      <!-- $10$ -->
      <g style="fill:#262626;" transform="translate(393.61276 322.301524)scale(0.088 -0.088)">
       <use transform="scale(0.996264)" xlink:href="#TeXGyreHeros-Regular-49"/>
       <use transform="translate(55.392255 0)scale(0.996264)" xlink:href="#TeXGyreHeros-Regular-48"/>
      </g>
     </g>
    </g>
    <g id="text_21">
     <!-- Time [s] -->
     <defs>
      <path d="M 59.296875 64.78125 
L 59.296875 73 
L 2.09375 73 
L 2.09375 64.78125 
L 26.09375 64.78125 
L 26.09375 -0.21875 
L 35.40625 -0.21875 
L 35.40625 64.78125 
z
" id="TeXGyreHeros-Regular-84"/>
      <path d="M 15.296875 0 
L 15.296875 52.484375 
L 7 52.484375 
L 7 0 
z
M 16.40625 60.578125 
L 16.40625 71 
L 6 71 
L 6 60.578125 
z
" id="TeXGyreHeros-Regular-105"/>
      <path d="M 76 0 
L 76 39.375 
C 76 48.78125 70.796875 54 61 54 
C 54 54 49.796875 51.890625 44.90625 45.984375 
C 41.796875 51.59375 37.59375 54 30.796875 54 
C 23.796875 54 19.203125 51.390625 14.703125 45.078125 
L 14.703125 52.484375 
L 7.09375 52.484375 
L 7.09375 0 
L 15.40625 0 
L 15.40625 32.953125 
C 15.40625 40.578125 20.90625 46.6875 27.703125 46.6875 
C 33.90625 46.6875 37.40625 42.875 37.40625 36.15625 
L 37.40625 0 
L 45.703125 0 
L 45.703125 32.953125 
C 45.703125 40.578125 51.296875 46.6875 58.09375 46.6875 
C 64.203125 46.6875 67.703125 42.78125 67.703125 36.15625 
L 67.703125 0 
z
" id="TeXGyreHeros-Regular-109"/>
      <path d="M 25 -21.203125 
L 25 -14 
L 14.703125 -14 
L 14.703125 65.78125 
L 25 65.78125 
L 25 73 
L 6.40625 73 
L 6.40625 -21.203125 
z
" id="TeXGyreHeros-Regular-91"/>
      <path d="M 45.90625 15.296875 
C 45.90625 23.15625 41.5 27.078125 31.09375 29.59375 
L 23.09375 31.5 
C 16.296875 33.109375 13.40625 35.328125 13.40625 39.046875 
C 13.40625 43.875 17.703125 47 24.5 47 
C 31.203125 47 34.796875 44.078125 35 38.53125 
L 43.796875 38.53125 
C 43.703125 48.890625 36.90625 54.71875 24.796875 54.71875 
C 12.59375 54.71875 4.703125 48.375 4.703125 38.609375 
C 4.703125 30.359375 8.90625 26.4375 21.296875 23.421875 
L 29.09375 21.5 
C 34.90625 20.09375 37.203125 18.375 37.203125 14.5625 
C 37.203125 9.625 32.296875 6.703125 25 6.703125 
C 17.5 6.703125 13.296875 8.53125 12.203125 16.578125 
L 3.40625 16.578125 
C 3.796875 4.421875 10.59375 -1 24.296875 -1 
C 37.5 -1 45.90625 5.140625 45.90625 15.296875 
z
" id="TeXGyreHeros-Regular-115"/>
      <path d="M 20.90625 -21.203125 
L 20.90625 73 
L 2.296875 73 
L 2.296875 65.78125 
L 12.59375 65.78125 
L 12.59375 -14 
L 2.296875 -14 
L 2.296875 -21.203125 
z
" id="TeXGyreHeros-Regular-93"/>
     </defs>
     <g style="fill:#262626;" transform="translate(219.154982 335.213675)scale(0.096 -0.096)">
      <use transform="scale(0.996264)" xlink:href="#TeXGyreHeros-Regular-84"/>
      <use transform="translate(60.871737 0)scale(0.996264)" xlink:href="#TeXGyreHeros-Regular-105"/>
      <use transform="translate(82.98881 0)scale(0.996264)" xlink:href="#TeXGyreHeros-Regular-109"/>
      <use transform="translate(165.977621 0)scale(0.996264)" xlink:href="#TeXGyreHeros-Regular-101"/>
      <use transform="translate(249.066002 0)scale(0.996264)" xlink:href="#TeXGyreHeros-Regular-91"/>
      <use transform="translate(276.76213 0)scale(0.996264)" xlink:href="#TeXGyreHeros-Regular-115"/>
      <use transform="translate(326.57533 0)scale(0.996264)" xlink:href="#TeXGyreHeros-Regular-93"/>
     </g>
    </g>
   </g>
   <g id="matplotlib.axis_5">
    <g id="ytick_10">
     <g id="line2d_35">
      <path clip-path="url(#p927dc180d7)" d="M 57.6 297.401143 
L 414.72 297.401143 
" style="fill:none;stroke:#cccccc;stroke-linecap:round;stroke-width:0.8;"/>
     </g>
     <g id="line2d_36">
      <g>
       <use style="fill:#262626;stroke:#262626;" x="57.6" xlink:href="#mbf8ede61e8" y="297.401143"/>
      </g>
     </g>
     <g id="text_22">
      <!-- $-25$ -->
      <g style="fill:#262626;" transform="translate(32.305821 300.609905)scale(0.088 -0.088)">
       <use transform="scale(0.996264)" xlink:href="#CMSY10-0"/>
       <use transform="translate(77.487468 0)scale(0.996264)" xlink:href="#TeXGyreHeros-Regular-50"/>
       <use transform="translate(132.879722 0)scale(0.996264)" xlink:href="#TeXGyreHeros-Regular-53"/>
      </g>
     </g>
    </g>
    <g id="ytick_11">
     <g id="line2d_37">
      <path clip-path="url(#p927dc180d7)" d="M 57.6 280.429714 
L 414.72 280.429714 
" style="fill:none;stroke:#cccccc;stroke-linecap:round;stroke-width:0.8;"/>
     </g>
     <g id="line2d_38">
      <g>
       <use style="fill:#262626;stroke:#262626;" x="57.6" xlink:href="#mbf8ede61e8" y="280.429714"/>
      </g>
     </g>
     <g id="text_23">
      <!-- $0$ -->
      <g style="fill:#262626;" transform="translate(44.425488 283.638476)scale(0.088 -0.088)">
       <use transform="scale(0.996264)" xlink:href="#TeXGyreHeros-Regular-48"/>
      </g>
     </g>
    </g>
    <g id="ytick_12">
     <g id="line2d_39">
      <path clip-path="url(#p927dc180d7)" d="M 57.6 263.458286 
L 414.72 263.458286 
" style="fill:none;stroke:#cccccc;stroke-linecap:round;stroke-width:0.8;"/>
     </g>
     <g id="line2d_40">
      <g>
       <use style="fill:#262626;stroke:#262626;" x="57.6" xlink:href="#mbf8ede61e8" y="263.458286"/>
      </g>
     </g>
     <g id="text_24">
      <!-- $25$ -->
      <g style="fill:#262626;" transform="translate(39.550975 266.667048)scale(0.088 -0.088)">
       <use transform="scale(0.996264)" xlink:href="#TeXGyreHeros-Regular-50"/>
       <use transform="translate(55.392255 0)scale(0.996264)" xlink:href="#TeXGyreHeros-Regular-53"/>
      </g>
     </g>
    </g>
   </g>
   <g id="line2d_41">
    <path clip-path="url(#p927dc180d7)" d="M 73.832727 273.641143 
L 80.131025 281.014759 
L 82.111418 282.888243 
L 84.059345 284.42906 
L 86.266996 285.885794 
L 89.221353 287.549208 
L 92.630225 289.221868 
L 95.162531 290.232375 
L 97.305251 290.855135 
L 99.38304 291.225967 
L 101.558225 291.383124 
L 104.122996 291.334182 
L 107.564335 291.030479 
L 111.654982 290.452349 
L 114.998924 289.764191 
L 118.318595 288.847832 
L 123.245149 287.219372 
L 132.148878 284.309911 
L 140.971287 281.610586 
L 145.354124 280.529535 
L 150.159011 279.582431 
L 155.288553 278.793146 
L 159.833716 278.313625 
L 164.508742 278.049742 
L 170.125265 277.964449 
L 176.277626 278.090286 
L 183.273775 278.468724 
L 198.110487 279.558143 
L 209.927913 280.334059 
L 220.057135 280.770523 
L 229.894167 280.965484 
L 241.451869 280.966585 
L 259.3728 280.706953 
L 286.026938 280.351669 
L 308.103447 280.309254 
L 398.487273 280.437565 
L 398.487273 280.437565 
" style="fill:none;stroke:#dd8452;stroke-dasharray:4.44,1.92;stroke-dashoffset:0;stroke-width:1.2;"/>
   </g>
   <g id="line2d_42">
    <path clip-path="url(#p927dc180d7)" d="M 73.832727 273.641143 
L 75.154986 275.052665 
L 76.713328 276.377204 
L 81.007593 279.846178 
L 83.150313 282.01439 
L 86.916305 285.861578 
L 88.507113 287.134885 
L 89.968058 288.028736 
L 91.493935 288.700958 
L 93.312 289.247089 
L 97.532509 290.180892 
L 104.447651 291.692762 
L 106.298182 291.769921 
L 108.148713 291.622059 
L 110.291433 291.217136 
L 114.122356 290.211238 
L 119.000369 289.02417 
L 123.147753 287.953109 
L 126.296902 286.889011 
L 135.322298 283.666003 
L 141.653062 281.9066 
L 148.827927 280.038059 
L 152.447982 279.356506 
L 156.846895 278.772495 
L 163.177658 278.163764 
L 167.755287 277.933629 
L 172.462778 277.931212 
L 180.157091 278.18395 
L 187.396887 278.618204 
L 213.531578 280.454399 
L 223.466007 280.831171 
L 233.173178 280.98872 
L 245.737309 280.946262 
L 267.781353 280.589696 
L 289.663069 280.335864 
L 312.194095 280.314078 
L 398.487273 280.438857 
L 398.487273 280.438857 
" style="fill:none;stroke:#4c72b0;stroke-linecap:round;stroke-width:1.2;"/>
   </g>
   <g id="patch_10">
    <path d="M 57.6 297.401143 
L 57.6 263.458286 
" style="fill:none;stroke:#262626;stroke-linecap:square;stroke-linejoin:miter;"/>
   </g>
   <g id="patch_11">
    <path d="M 73.832727 307.584 
L 398.487273 307.584 
" style="fill:none;stroke:#262626;stroke-linecap:square;stroke-linejoin:miter;"/>
   </g>
   <g id="text_25">
    <!-- PD$\alpha$-Controller -->
    <defs>
     <path d="M 46.296875 25.25 
C 46.296875 34.921875 40.796875 43.984375 30.203125 43.984375 
C 17.09375 43.984375 4 29.71875 4 15.5625 
C 4 6.890625 9.40625 -1 19.59375 -1 
C 25.796875 -1 33.203125 1.390625 40.296875 7.375 
C 41.703125 1.796875 44.796875 -1 49.09375 -1 
C 54.5 -1 57.203125 4.59375 57.203125 5.890625 
C 57.203125 6.78125 56.5 6.78125 56.203125 6.78125 
C 55.40625 6.78125 55.296875 6.484375 55 5.6875 
C 54.09375 3.1875 51.796875 1 49.40625 1 
C 46.296875 1 46.296875 7.375 46.296875 13.46875 
C 56.5 25.640625 58.90625 38.21875 58.90625 38.3125 
C 58.90625 39.21875 58.09375 39.21875 57.796875 39.21875 
C 56.90625 39.21875 56.796875 38.921875 56.40625 37.125 
C 55.09375 32.734375 52.5 24.953125 46.296875 16.765625 
z
M 40 9.78125 
C 31.203125 1.890625 23.296875 1 19.796875 1 
C 12.703125 1 10.703125 7.28125 10.703125 11.96875 
C 10.703125 16.25 12.90625 26.4375 16 31.9375 
C 20.09375 38.921875 25.703125 42 30.203125 42 
C 39.90625 42 39.90625 29.328125 39.90625 20.953125 
C 39.90625 18.46875 39.796875 15.875 39.796875 13.375 
C 39.796875 11.375 39.90625 10.875 40 9.78125 
z
" id="CMMI12-11"/>
    </defs>
    <g style="fill:#262626;" transform="translate(350.540431 253.275429)scale(0.096 -0.096)">
     <use transform="scale(0.996264)" xlink:href="#TeXGyreHeros-Regular-80"/>
     <use transform="translate(66.450791 0)scale(0.996264)" xlink:href="#TeXGyreHeros-Regular-68"/>
     <use transform="translate(138.381065 0)scale(0.996264)" xlink:href="#CMMI12-11"/>
     <use transform="translate(201.062088 0)scale(0.996264)" xlink:href="#TeXGyreHeros-Regular-45"/>
     <use transform="translate(234.237698 0)scale(0.996264)" xlink:href="#TeXGyreHeros-Regular-67"/>
     <use transform="translate(306.167971 0)scale(0.996264)" xlink:href="#TeXGyreHeros-Regular-111"/>
     <use transform="translate(361.560226 0)scale(0.996264)" xlink:href="#TeXGyreHeros-Regular-110"/>
     <use transform="translate(416.95248 0)scale(0.996264)" xlink:href="#TeXGyreHeros-Regular-116"/>
     <use transform="translate(444.648608 0)scale(0.996264)" xlink:href="#TeXGyreHeros-Regular-114"/>
     <use transform="translate(477.32607 0)scale(0.996264)" xlink:href="#TeXGyreHeros-Regular-111"/>
     <use transform="translate(532.718325 0)scale(0.996264)" xlink:href="#TeXGyreHeros-Regular-108"/>
     <use transform="translate(554.835398 0)scale(0.996264)" xlink:href="#TeXGyreHeros-Regular-108"/>
     <use transform="translate(576.952471 0)scale(0.996264)" xlink:href="#TeXGyreHeros-Regular-101"/>
     <use transform="translate(632.344726 0)scale(0.996264)" xlink:href="#TeXGyreHeros-Regular-114"/>
    </g>
   </g>
  </g>
 </g>
 <defs>
  <clipPath id="p098065a6f8">
   <rect height="54.308571" width="357.12" x="57.6" y="41.472"/>
  </clipPath>
  <clipPath id="p561a62e578">
   <rect height="54.308571" width="357.12" x="57.6" y="112.073143"/>
  </clipPath>
  <clipPath id="p0370f2ebc1">
   <rect height="54.308571" width="357.12" x="57.6" y="182.674286"/>
  </clipPath>
  <clipPath id="p927dc180d7">
   <rect height="54.308571" width="357.12" x="57.6" y="253.275429"/>
  </clipPath>
 </defs>
</svg>
